<svg width="1139" height="280" viewBox="0 0 1139 280" fill="none" xmlns="http://www.w3.org/2000/svg">
<path d="M297.297 87.7165H258.176V66.459H359.654V87.7165H320.533V190.461H297.297V87.7165Z" fill="#9575FF"/>
<path d="M400.05 66.459H376.966V190.461H400.05V66.459Z" fill="#9575FF"/>
<path d="M456.365 87.7165H417.243V66.459H518.722V87.7165H479.6V190.461H456.365V87.7165Z" fill="#9575FF"/>
<path d="M607.14 167.096H542.687L532.116 190.461H506.906L562.217 66.459H587.609L642.92 190.461H617.528L607.14 167.096ZM574.913 92.5117L552.011 145.289H597.815L574.913 92.5117Z" fill="#9575FF"/>
<path d="M734.527 66.2754H757.793V190.461H743.335V190.644L678.517 106.866V190.461H655.251V66.4586H674.113L734.527 143.334V66.2754Z" fill="#9575FF"/>
<path d="M837.22 153.963H802.29V190.461H779.023V66.4586C798.402 66.4586 817.78 66.2754 837.159 66.2754C897.42 66.2754 897.572 153.963 837.159 153.963H837.22ZM802.29 132.583H837.159C866.925 132.583 866.743 88.6325 837.159 88.6325H802.29V132.583Z" fill="#38D1D6"/>
<path d="M1007.59 190.461H979.916L943.984 149.015H921.598V190.461H898.362V66.2754C917.893 66.2754 937.453 66.4586 957.014 66.4586C986.081 66.6419 1001.39 86.128 1001.39 107.569C1001.39 124.581 993.645 141.746 970.227 146.541L1007.59 188.873V190.461ZM921.598 88.266V127.971H957.014C971.806 127.971 978.275 118.045 978.275 108.119C978.275 98.1923 971.745 88.2965 957.014 88.2965L921.598 88.266Z" fill="#38D1D6"/>
<path d="M1138.28 129.162C1137.92 161.232 1118.39 193.301 1075.05 193.301C1031.7 193.301 1011.63 161.934 1011.63 129.345C1011.63 96.7564 1032.4 63.9844 1075.05 63.9844C1117.69 63.9844 1138.65 96.7565 1138.28 129.162ZM1034.53 129.712C1035.04 150.084 1045.98 171.86 1075.05 171.86C1104.11 171.86 1115.02 149.9 1115.38 129.529C1115.75 108.637 1104.11 85.2419 1075.05 85.2419C1045.98 85.2419 1034.01 108.79 1034.53 129.712Z" fill="#38D1D6"/>
<path d="M563.769 226.502H542.021V241.101H562.615V246.537H542.021V263.763H536.189V221.004H563.769V226.502Z" fill="black"/>
<path d="M571.878 224.668C571.861 224.166 571.947 223.666 572.13 223.199C572.313 222.732 572.59 222.308 572.943 221.952C573.297 221.597 573.719 221.319 574.183 221.135C574.648 220.95 575.145 220.864 575.644 220.881C576.635 220.881 577.586 221.277 578.286 221.981C578.987 222.686 579.38 223.641 579.38 224.638C579.38 225.634 578.987 226.59 578.286 227.294C577.586 227.999 576.635 228.394 575.644 228.394C575.149 228.416 574.655 228.334 574.193 228.155C573.73 227.976 573.309 227.703 572.956 227.354C572.603 227.005 572.325 226.586 572.14 226.124C571.954 225.662 571.865 225.166 571.878 224.668ZM572.911 233.587H578.56V263.763H572.911V233.587Z" fill="black"/>
<path d="M589.676 263.768V233.592H594.961C594.961 235.303 594.961 237.013 594.779 239.212H594.961C595.939 237.228 597.486 235.586 599.403 234.497C601.32 233.407 603.519 232.922 605.713 233.104C613.975 233.104 618.348 238.174 618.348 246.848V263.829H612.699V247.336C612.699 241.717 610.087 238.174 604.62 238.174C603.377 238.148 602.141 238.378 600.99 238.85C599.839 239.322 598.795 240.026 597.924 240.919C597.054 241.811 596.374 242.874 595.927 244.04C595.48 245.207 595.275 246.454 595.325 247.703V263.768H589.676Z" fill="black"/>
<path d="M651.79 221.004V226.379H637.635V263.763H631.804V226.379H617.649V221.004H651.79Z" fill="black"/>
<path d="M680.128 250.815H656.497C656.574 252.03 656.891 253.218 657.429 254.309C657.968 255.399 658.717 256.371 659.633 257.167C660.549 257.964 661.614 258.568 662.766 258.946C663.917 259.323 665.132 259.467 666.338 259.367C669.925 259.395 673.4 258.114 676.119 255.763L678.974 259.672C675.493 262.857 670.921 264.564 666.217 264.437C664.143 264.54 662.07 264.201 660.135 263.443C658.2 262.684 656.447 261.522 654.989 260.034C653.532 258.546 652.405 256.765 651.681 254.807C650.956 252.85 650.652 250.761 650.787 248.677C650.679 246.589 651.007 244.502 651.749 242.549C652.49 240.596 653.63 238.82 655.094 237.336C656.558 235.852 658.315 234.692 660.252 233.931C662.188 233.17 664.261 232.825 666.338 232.917C674.479 232.917 680.371 238.109 680.371 248.188C680.371 249.043 680.371 249.899 680.371 250.693L680.128 250.815ZM656.68 246.05H675.208C675.216 244.888 674.978 243.737 674.51 242.674C674.041 241.612 673.353 240.662 672.491 239.887C671.629 239.113 670.612 238.532 669.51 238.183C668.407 237.835 667.243 237.726 666.096 237.865C663.766 237.742 661.479 238.523 659.704 240.046C657.93 241.568 656.804 243.717 656.558 246.05" fill="black"/>
<path d="M686.144 248.739C686.053 246.618 686.403 244.5 687.171 242.522C687.94 240.543 689.111 238.748 690.609 237.25C692.107 235.753 693.899 234.586 695.871 233.824C697.842 233.063 699.95 232.723 702.06 232.827C705.781 232.738 709.422 233.923 712.387 236.187L709.532 240.463C707.362 238.825 704.711 237.965 701.999 238.019C699.212 237.995 696.529 239.085 694.541 241.05C692.553 243.014 691.423 245.692 691.399 248.495C691.374 251.298 692.459 253.996 694.412 255.995C696.366 257.994 699.03 259.13 701.817 259.154C704.872 259.208 707.837 258.12 710.139 256.1L712.751 260.621C709.662 263.122 705.781 264.423 701.817 264.286C699.736 264.405 697.652 264.081 695.704 263.334C693.756 262.588 691.987 261.436 690.513 259.953C689.039 258.471 687.893 256.692 687.151 254.733C686.408 252.774 686.086 250.68 686.205 248.587" fill="black"/>
<path d="M720.891 263.763V221.004H726.54V230.961C726.574 233.614 726.432 236.267 726.115 238.902C727.245 237.082 728.822 235.585 730.695 234.558C732.568 233.531 734.673 233.007 736.806 233.038C745.068 233.038 749.442 238.108 749.442 246.782V263.763H743.793V247.27C743.793 241.651 741.18 238.108 735.713 238.108C734.47 238.082 733.235 238.312 732.083 238.784C730.932 239.256 729.889 239.96 729.018 240.853C728.147 241.745 727.468 242.808 727.021 243.974C726.574 245.141 726.369 246.388 726.419 247.637V263.702L720.891 263.763Z" fill="black"/>
<path d="M783.976 258.205H807.364V263.763H778.114V221.004H807V226.502H783.976V239.329H805.906V244.827H783.976V258.205Z" fill="black"/>
<path d="M864.436 245.621V263.764H858.787V246.415C858.787 241.529 856.296 238.169 851.558 238.169C850.463 238.141 849.375 238.343 848.362 238.761C847.35 239.179 846.434 239.804 845.674 240.597C844.915 241.39 844.327 242.332 843.949 243.366C843.571 244.399 843.411 245.5 843.479 246.599V263.764H837.829V246.538C837.829 241.529 835.156 238.169 830.357 238.169C829.276 238.152 828.204 238.364 827.209 238.789C826.215 239.214 825.319 239.844 824.581 240.638C823.843 241.432 823.279 242.372 822.924 243.399C822.569 244.426 822.431 245.516 822.521 246.599V263.764H816.871V233.588H822.156C822.155 235.471 821.992 237.352 821.67 239.207C822.404 237.299 823.725 235.678 825.441 234.579C827.157 233.48 829.178 232.961 831.207 233.099C833.327 232.935 835.444 233.457 837.247 234.589C839.05 235.721 840.446 237.404 841.231 239.391C842.575 236.982 844.68 235.094 847.213 234.025C849.745 232.956 852.56 232.768 855.211 233.49C857.862 234.213 860.197 235.805 861.846 238.013C863.495 240.222 864.364 242.921 864.315 245.682" fill="black"/>
<path d="M874.945 277.935V233.588H880.595C880.568 235.385 880.447 237.179 880.23 238.963C881.355 236.996 883.002 235.382 884.987 234.304C886.972 233.225 889.216 232.723 891.468 232.855C895.456 233.104 899.2 234.873 901.936 237.801C904.672 240.73 906.196 244.597 906.196 248.614C906.196 252.632 904.672 256.499 901.936 259.427C899.2 262.355 895.456 264.125 891.468 264.374C889.252 264.484 887.049 263.971 885.107 262.892C883.165 261.813 881.56 260.211 880.473 258.266C880.688 260.58 880.769 262.906 880.716 265.23V277.813L874.945 277.935ZM900.702 248.798C900.637 246.818 899.994 244.901 898.854 243.285C897.714 241.669 896.127 240.426 894.291 239.709C892.454 238.993 890.449 238.834 888.523 239.254C886.598 239.674 884.838 240.653 883.461 242.071C882.085 243.488 881.153 245.281 880.781 247.226C880.409 249.171 880.614 251.184 881.37 253.013C882.126 254.843 883.4 256.408 885.033 257.516C886.666 258.624 888.587 259.224 890.557 259.243C891.92 259.279 893.275 259.031 894.538 258.515C895.801 257.999 896.944 257.227 897.897 256.246C898.849 255.266 899.589 254.098 900.072 252.816C900.555 251.535 900.77 250.167 900.702 248.798Z" fill="black"/>
<path d="M912.733 248.802C912.646 246.677 913.001 244.557 913.775 242.578C914.549 240.599 915.727 238.805 917.231 237.31C918.735 235.814 920.532 234.652 922.509 233.896C924.486 233.14 926.598 232.807 928.71 232.92C930.778 232.824 932.842 233.163 934.772 233.915C936.702 234.667 938.455 235.816 939.918 237.287C941.382 238.759 942.524 240.521 943.271 242.462C944.019 244.402 944.356 246.479 944.261 248.558C944.349 250.682 943.994 252.802 943.22 254.781C942.446 256.76 941.269 258.555 939.765 260.05C938.261 261.545 936.462 262.708 934.486 263.464C932.509 264.22 930.397 264.552 928.285 264.44C926.217 264.535 924.153 264.196 922.223 263.444C920.293 262.692 918.541 261.544 917.077 260.072C915.614 258.6 914.471 256.838 913.723 254.898C912.976 252.957 912.638 250.881 912.733 248.802ZM938.612 248.802C938.558 246.807 937.922 244.872 936.783 243.238C935.643 241.604 934.051 240.343 932.203 239.612C930.356 238.882 928.336 238.714 926.395 239.13C924.454 239.545 922.677 240.526 921.286 241.949C919.895 243.373 918.952 245.177 918.573 247.136C918.194 249.095 918.397 251.123 919.156 252.967C919.915 254.811 921.197 256.39 922.841 257.506C924.486 258.623 926.422 259.229 928.406 259.247C929.768 259.269 931.12 259.012 932.38 258.492C933.639 257.973 934.781 257.201 935.735 256.224C936.69 255.247 937.437 254.086 937.931 252.81C938.426 251.534 938.657 250.17 938.612 248.802Z" fill="black"/>
<path d="M958.535 263.768L948.27 233.592H954.344L958.05 245.809C959.751 251.184 960.844 254.972 961.816 258.27C962.727 254.849 963.821 251.184 965.582 245.87L969.47 233.653H974.452L978.278 245.87C979.979 251.184 981.134 255.033 981.984 258.331H982.166C983.047 254.91 984.171 251.184 985.811 245.931L989.639 233.714H995.713L985.477 263.89H978.977L976.426 255.705C974.725 250.329 973.146 245.137 972.174 241.533C971.141 245.137 969.501 250.329 967.8 255.705L965.248 263.89L958.535 263.768Z" fill="black"/>
<path d="M1029.12 250.815H1005.37C1005.45 252.03 1005.76 253.218 1006.3 254.309C1006.84 255.399 1007.59 256.371 1008.51 257.167C1009.42 257.964 1010.49 258.568 1011.64 258.946C1012.79 259.323 1014.01 259.467 1015.21 259.367C1018.8 259.395 1022.27 258.114 1024.99 255.763L1027.85 259.672C1024.37 262.857 1019.8 264.564 1015.09 264.437C1013.02 264.54 1010.94 264.201 1009.01 263.443C1007.07 262.684 1005.32 261.522 1003.86 260.034C1002.41 258.546 1001.28 256.765 1000.55 254.807C999.83 252.85 999.526 250.761 999.661 248.677C999.553 246.589 999.881 244.502 1000.62 242.549C1001.36 240.596 1002.5 238.82 1003.97 237.336C1005.43 235.852 1007.19 234.692 1009.13 233.931C1011.06 233.17 1013.14 232.825 1015.21 232.917C1023.35 232.917 1029.25 238.109 1029.25 248.188C1029.25 249.043 1029.25 249.899 1029.25 250.693L1029.12 250.815ZM1005.55 246.05H1024.08C1024.09 244.888 1023.85 243.737 1023.38 242.674C1022.92 241.612 1022.23 240.662 1021.36 239.887C1020.5 239.113 1019.49 238.532 1018.38 238.183C1017.28 237.835 1016.12 237.726 1014.97 237.865C1012.64 237.742 1010.35 238.523 1008.58 240.046C1006.8 241.568 1005.68 243.717 1005.43 246.05" fill="black"/>
<path d="M1037.44 263.763V233.587H1042.73C1042.73 235.298 1042.73 237.069 1042.73 238.78C1043.52 237.032 1044.81 235.557 1046.43 234.536C1048.05 233.516 1049.93 232.995 1051.84 233.038C1053.24 233.017 1054.64 233.223 1055.97 233.648L1054.39 238.718C1053.42 238.351 1052.39 238.184 1051.36 238.23C1046.31 238.23 1042.91 242.2 1042.91 248.064V263.763H1037.44Z" fill="black"/>
<path d="M1089.38 250.815H1065.63C1065.71 252.03 1066.03 253.218 1066.56 254.309C1067.1 255.399 1067.85 256.371 1068.77 257.167C1069.68 257.964 1070.75 258.568 1071.9 258.946C1073.05 259.323 1074.27 259.467 1075.47 259.367C1079.06 259.395 1082.53 258.114 1085.25 255.763L1088.11 259.672C1084.63 262.857 1080.06 264.564 1075.35 264.437C1073.28 264.54 1071.2 264.201 1069.27 263.443C1067.33 262.684 1065.58 261.522 1064.12 260.034C1062.67 258.546 1061.54 256.765 1060.82 254.807C1060.09 252.85 1059.79 250.761 1059.92 248.677C1059.81 246.589 1060.14 244.502 1060.88 242.549C1061.63 240.596 1062.76 238.82 1064.23 237.336C1065.69 235.852 1067.45 234.692 1069.39 233.931C1071.32 233.17 1073.4 232.825 1075.47 232.917C1083.61 232.917 1089.51 238.109 1089.51 248.188C1089.51 249.043 1089.51 249.899 1089.51 250.693L1089.38 250.815ZM1065.81 246.05H1084.34C1084.35 244.888 1084.11 243.737 1083.64 242.674C1083.18 241.612 1082.49 240.662 1081.63 239.887C1080.76 239.113 1079.75 238.532 1078.64 238.183C1077.54 237.835 1076.38 237.726 1075.23 237.865C1072.9 237.742 1070.61 238.523 1068.84 240.046C1067.06 241.568 1065.94 243.717 1065.69 246.05" fill="black"/>
<path d="M1095.4 248.737C1095.4 239.208 1101.66 232.916 1110.22 232.916C1112.46 232.82 1114.68 233.338 1116.65 234.414C1118.62 235.489 1120.26 237.083 1121.4 239.025C1121.13 236.488 1120.99 233.94 1120.97 231.389V220.943H1126.62V263.703H1121.34V258.266C1120.25 260.211 1118.65 261.814 1116.7 262.893C1114.76 263.972 1112.56 264.485 1110.34 264.375C1108.31 264.436 1106.28 264.066 1104.39 263.29C1102.51 262.514 1100.81 261.348 1099.4 259.868C1097.99 258.388 1096.91 256.627 1096.22 254.699C1095.53 252.771 1095.25 250.719 1095.4 248.676V248.737ZM1121.09 248.676C1121.2 247.293 1121.01 245.903 1120.55 244.596C1120.08 243.29 1119.35 242.095 1118.4 241.088C1117.45 240.082 1116.31 239.286 1115.03 238.752C1113.76 238.218 1112.39 237.957 1111.01 237.986C1108.92 237.901 1106.85 238.445 1105.07 239.548C1103.29 240.651 1101.88 242.263 1101.02 244.177C1100.15 246.092 1099.88 248.223 1100.22 250.296C1100.57 252.37 1101.52 254.292 1102.96 255.818C1104.4 257.343 1106.26 258.403 1108.3 258.86C1110.34 259.317 1112.47 259.152 1114.42 258.385C1116.37 257.618 1118.04 256.285 1119.23 254.555C1120.42 252.826 1121.07 250.779 1121.09 248.676Z" fill="black"/>
<path d="M110.834 24.1591L200.892 76.4478V180.903L110.864 233.161L20.8061 180.903V76.4478L110.834 24.1591ZM110.834 0L0 64.353V193.12L110.834 257.473L221.668 193.12V64.353L110.834 0Z" fill="#9575FF"/>
<path d="M71.4707 279.922L111.959 256.771L71.4707 233.65V279.922Z" fill="#9575FF"/>
<path d="M134.071 195.657V115.208L64.8492 75.0137L41.6133 88.4829L110.865 128.707V209.156H110.835H110.865" fill="#9575FF"/>
<path d="M180.298 168.934V88.4849L111.077 48.291L87.8408 61.7602L157.093 101.985V182.434" fill="#38D1D6"/>
</svg>
