<svg id="Layer_1" data-name="Layer 1" xmlns="http://www.w3.org/2000/svg" viewBox="0 0 1449.03 1692.46"><defs><style>.cls-1{fill:#9926dd;}.cls-2{fill:#fff;}</style></defs><path class="cls-1" d="M1710.29,1105.73,546.3,1804a136.68,136.68,0,0,1-141.31.72c-44.68-26.23-72.37-75.61-72.37-128.8V279.33c0-53.35,27.8-102.72,72.57-128.85a138.16,138.16,0,0,1,141.11.93L1710.39,849.72c44.07,26.49,71.26,75.61,71.26,128.24S1754.26,1079.49,1710.29,1105.73Z" transform="translate(-332.62 -131.57)"/><path class="cls-2" d="M1399,1092V885.21c0-.76-.07-1.49-.13-2.23s.13-1.48.13-2.24c0-26.08-24.94-47.22-55.72-47.22s-55.71,21.14-55.71,47.22c0,.76.09,1.49.13,2.24s-.13,1.47-.13,2.22V1092c0,.54.06,1.08.1,1.62s-.1,1.08-.1,1.63c0,26.08,24.94,47.22,55.71,47.22s55.72-21.14,55.72-47.22c0-.55-.07-1.09-.09-1.63S1399,1092.52,1399,1092Z" transform="translate(-332.62 -131.57)"/><path class="cls-2" d="M493,833.52c-30.77,0-55.72,21.14-55.72,47.22,0,.75.09,1.49.13,2.23s-.13,1.48-.13,2.24V1092c0,.55.07,1.08.1,1.62s-.1,1.08-.1,1.63c0,26.08,25,47.22,55.72,47.22s55.72-21.14,55.72-47.22c0-.55-.08-1.08-.1-1.63s.1-1.08.1-1.63V885.21c0-.76-.08-1.5-.14-2.24s.14-1.48.14-2.23C548.72,854.66,523.77,833.52,493,833.52Z" transform="translate(-332.62 -131.57)"/><path class="cls-2" d="M1130.69,693.25c-30.77,0-55.72,21.14-55.72,47.22a1.17,1.17,0,0,1,0,.43v493.33h0v2a27.17,27.17,0,0,0,1.82,9.74c6.19,20.37,27.94,35.44,53.9,35.44s47.71-15.07,53.9-35.43a27.26,27.26,0,0,0,1.82-9.74V740.9a1.49,1.49,0,0,0,0-.21c0-.07,0-.15,0-.22C1186.41,714.39,1161.46,693.25,1130.69,693.25Z" transform="translate(-332.62 -131.57)"/><path class="cls-2" d="M705.56,693.25c-30.77,0-55.72,21.14-55.72,47.22,0,.08,0,.15,0,.22s0,.14,0,.21v493.33h0v2a27,27,0,0,0,1.82,9.74c6.18,20.37,27.93,35.44,53.89,35.44s47.71-15.07,53.9-35.43a27.27,27.27,0,0,0,1.82-9.75V740.9c0-.07,0-.14,0-.21s0-.15,0-.22C761.28,714.39,736.33,693.25,705.56,693.25Z" transform="translate(-332.62 -131.57)"/><path class="cls-2" d="M918.13,556.49c-30.78,0-55.72,21.15-55.72,47.23a41,41,0,0,0,.4,5.45,26.52,26.52,0,0,0-.4,4.38v750.08c0,.86.07,1.71.15,2.56s-.15,1.69-.15,2.55c0,26.08,24.94,47.23,55.72,47.23s55.72-21.15,55.72-47.23c0-.86-.1-1.7-.16-2.55s.16-1.7.16-2.56V613.55a26.42,26.42,0,0,0-.41-4.38,39.39,39.39,0,0,0,.41-5.45C973.85,577.64,948.9,556.49,918.13,556.49Z" transform="translate(-332.62 -131.57)"/></svg>